<mxfile host="app.diagrams.net" agent="Mozilla/5.0 (Windows NT 10.0; Win64; x64) AppleWebKit/537.36 (KHTML, like Gecko) Chrome/133.0.0.0 Safari/537.36" version="26.0.16">
  <diagram id="i2U2fAWp4BPeJd0J6tEC" name="Страница 1">
    <mxGraphModel dx="1687" dy="918" grid="1" gridSize="10" guides="1" tooltips="1" connect="1" arrows="1" fold="1" page="1" pageScale="1" pageWidth="1169" pageHeight="1654" math="0" shadow="0">
      <root>
        <mxCell id="0" />
        <mxCell id="1" parent="0" />
        <mxCell id="QtPyrSU2G6B9cX66VUJU-1" value="" style="rounded=1;whiteSpace=wrap;html=1;" vertex="1" parent="1">
          <mxGeometry x="520" y="800" width="230" height="330" as="geometry" />
        </mxCell>
        <mxCell id="QtPyrSU2G6B9cX66VUJU-2" value="Клиент" style="text;html=1;align=center;verticalAlign=middle;whiteSpace=wrap;rounded=0;fontSize=16;fontStyle=1" vertex="1" parent="1">
          <mxGeometry x="540" y="812" width="60" height="30" as="geometry" />
        </mxCell>
        <mxCell id="QtPyrSU2G6B9cX66VUJU-3" value="" style="rounded=1;whiteSpace=wrap;html=1;" vertex="1" parent="1">
          <mxGeometry x="1040" y="800" width="230" height="330" as="geometry" />
        </mxCell>
        <mxCell id="QtPyrSU2G6B9cX66VUJU-4" value="Сервер" style="text;html=1;align=center;verticalAlign=middle;whiteSpace=wrap;rounded=0;fontSize=16;fontStyle=1" vertex="1" parent="1">
          <mxGeometry x="1060" y="812" width="60" height="30" as="geometry" />
        </mxCell>
        <mxCell id="QtPyrSU2G6B9cX66VUJU-5" value="" style="endArrow=classic;html=1;rounded=0;fontSize=16;fontStyle=1;strokeWidth=2;" edge="1" parent="1">
          <mxGeometry width="50" height="50" relative="1" as="geometry">
            <mxPoint x="760" y="880" as="sourcePoint" />
            <mxPoint x="1030" y="880" as="targetPoint" />
          </mxGeometry>
        </mxCell>
        <mxCell id="QtPyrSU2G6B9cX66VUJU-6" value="Запрос на содержимое" style="text;html=1;align=center;verticalAlign=middle;whiteSpace=wrap;rounded=0;fontSize=16;fontStyle=1" vertex="1" parent="1">
          <mxGeometry x="800" y="850" width="190" height="30" as="geometry" />
        </mxCell>
        <mxCell id="QtPyrSU2G6B9cX66VUJU-8" value="" style="endArrow=classic;html=1;rounded=0;strokeWidth=2;" edge="1" parent="1">
          <mxGeometry width="50" height="50" relative="1" as="geometry">
            <mxPoint x="1030" y="1000" as="sourcePoint" />
            <mxPoint x="760" y="1000" as="targetPoint" />
          </mxGeometry>
        </mxCell>
        <mxCell id="QtPyrSU2G6B9cX66VUJU-9" value="Сформированая страница" style="text;html=1;align=center;verticalAlign=middle;whiteSpace=wrap;rounded=0;fontSize=16;fontStyle=1" vertex="1" parent="1">
          <mxGeometry x="780" y="970" width="240" height="30" as="geometry" />
        </mxCell>
        <mxCell id="QtPyrSU2G6B9cX66VUJU-11" value="API запросы" style="rounded=1;whiteSpace=wrap;html=1;fontSize=16;fontStyle=1" vertex="1" parent="1">
          <mxGeometry x="1080" y="860" width="150" height="60" as="geometry" />
        </mxCell>
        <mxCell id="QtPyrSU2G6B9cX66VUJU-12" value="Формирование страницы" style="rounded=1;whiteSpace=wrap;html=1;fontSize=16;fontStyle=1" vertex="1" parent="1">
          <mxGeometry x="1080" y="940" width="150" height="60" as="geometry" />
        </mxCell>
        <mxCell id="QtPyrSU2G6B9cX66VUJU-13" value="Сформированная страница" style="rounded=1;whiteSpace=wrap;html=1;fontSize=16;fontStyle=1" vertex="1" parent="1">
          <mxGeometry x="1077.5" y="1020" width="155" height="60" as="geometry" />
        </mxCell>
        <mxCell id="QtPyrSU2G6B9cX66VUJU-14" value="Обработка страницы" style="rounded=1;whiteSpace=wrap;html=1;fontSize=16;fontStyle=1" vertex="1" parent="1">
          <mxGeometry x="560" y="860" width="150" height="60" as="geometry" />
        </mxCell>
        <mxCell id="QtPyrSU2G6B9cX66VUJU-15" value="Отрисовка приложения" style="rounded=1;whiteSpace=wrap;html=1;fontSize=16;fontStyle=1" vertex="1" parent="1">
          <mxGeometry x="560" y="955" width="150" height="60" as="geometry" />
        </mxCell>
        <mxCell id="QtPyrSU2G6B9cX66VUJU-16" value="" style="endArrow=none;dashed=1;html=1;rounded=0;exitX=1;exitY=0.5;exitDx=0;exitDy=0;strokeWidth=2;" edge="1" parent="1" source="QtPyrSU2G6B9cX66VUJU-14">
          <mxGeometry width="50" height="50" relative="1" as="geometry">
            <mxPoint x="770" y="800" as="sourcePoint" />
            <mxPoint x="760" y="1000" as="targetPoint" />
          </mxGeometry>
        </mxCell>
        <mxCell id="QtPyrSU2G6B9cX66VUJU-17" value="" style="endArrow=classic;html=1;rounded=0;exitX=0.5;exitY=1;exitDx=0;exitDy=0;entryX=0.5;entryY=0;entryDx=0;entryDy=0;" edge="1" parent="1" source="QtPyrSU2G6B9cX66VUJU-11" target="QtPyrSU2G6B9cX66VUJU-12">
          <mxGeometry width="50" height="50" relative="1" as="geometry">
            <mxPoint x="910" y="1160" as="sourcePoint" />
            <mxPoint x="960" y="1110" as="targetPoint" />
          </mxGeometry>
        </mxCell>
        <mxCell id="QtPyrSU2G6B9cX66VUJU-18" value="" style="endArrow=classic;html=1;rounded=0;exitX=0.5;exitY=1;exitDx=0;exitDy=0;entryX=0.5;entryY=0;entryDx=0;entryDy=0;" edge="1" parent="1" source="QtPyrSU2G6B9cX66VUJU-12" target="QtPyrSU2G6B9cX66VUJU-13">
          <mxGeometry width="50" height="50" relative="1" as="geometry">
            <mxPoint x="940" y="1110" as="sourcePoint" />
            <mxPoint x="990" y="1060" as="targetPoint" />
          </mxGeometry>
        </mxCell>
        <mxCell id="QtPyrSU2G6B9cX66VUJU-19" value="" style="endArrow=classic;html=1;rounded=0;exitX=0.5;exitY=1;exitDx=0;exitDy=0;entryX=0.5;entryY=0;entryDx=0;entryDy=0;" edge="1" parent="1" source="QtPyrSU2G6B9cX66VUJU-14" target="QtPyrSU2G6B9cX66VUJU-15">
          <mxGeometry width="50" height="50" relative="1" as="geometry">
            <mxPoint x="350" y="1160" as="sourcePoint" />
            <mxPoint x="400" y="1110" as="targetPoint" />
          </mxGeometry>
        </mxCell>
      </root>
    </mxGraphModel>
  </diagram>
</mxfile>
